<?xml version="1.0" standalone="no"?>
<!DOCTYPE svg PUBLIC "-//W3C//DTD SVG 20010904//EN"
 "http://www.w3.org/TR/2001/REC-SVG-20010904/DTD/svg10.dtd">
<svg version="1.0" xmlns="http://www.w3.org/2000/svg"
 width="847.000000pt" height="847.000000pt" viewBox="0 0 847.000000 847.000000"
 preserveAspectRatio="xMidYMid meet">
<metadata>
Created by potrace 1.14, written by Peter Selinger 2001-2017
</metadata>
<g transform="translate(0.000000,847.000000) scale(0.100000,-0.100000)"
fill="#000000" stroke="none">
<path d="M5895 7332 c-13 -9 -90 -99 -239 -277 -65 -77 -125 -149 -134 -160
-10 -11 -66 -78 -126 -150 -155 -185 -190 -227 -201 -239 -6 -6 -30 -36 -55
-66 -25 -30 -47 -57 -50 -60 -3 -3 -48 -57 -100 -120 -52 -63 -97 -117 -100
-120 -3 -3 -39 -45 -80 -95 -41 -49 -84 -101 -96 -115 -49 -56 -101 -119 -132
-158 -33 -40 -48 -58 -95 -113 -12 -14 -37 -44 -55 -67 -19 -23 -41 -50 -50
-61 -10 -11 -51 -60 -92 -110 -41 -49 -77 -90 -80 -90 -3 0 -34 37 -70 81 -36
45 -130 161 -208 257 -79 97 -221 271 -315 386 -94 116 -192 235 -217 265 -26
30 -138 168 -251 305 -112 138 -209 257 -216 265 -212 259 -358 430 -368 430
-24 0 -95 -59 -89 -75 5 -12 -4 -14 -62 -9 -210 17 -307 10 -432 -32 -199 -66
-334 -190 -458 -420 -20 -38 -41 -76 -45 -84 -12 -21 -108 -228 -149 -320 -63
-139 -175 -355 -225 -430 -129 -195 -290 -306 -485 -336 -78 -11 -262 -4 -350
15 -19 4 -43 5 -52 3 -18 -4 -5 -26 69 -118 18 -21 107 -133 200 -249 92 -115
176 -219 185 -230 9 -11 86 -105 170 -210 157 -194 315 -388 373 -460 30 -36
396 -488 399 -492 0 0 15 -3 31 -6 17 -3 53 -10 80 -17 69 -16 211 -21 265 -9
97 23 89 21 172 47 90 28 168 62 168 73 0 5 5 9 11 9 21 0 158 146 209 223 59
88 148 264 245 482 196 440 332 630 527 733 51 27 84 37 183 58 42 9 230 9
290 1 144 -21 142 -20 238 -139 l88 -109 -39 -47 c-22 -26 -132 -159 -247
-297 -114 -137 -224 -270 -244 -294 -20 -24 -41 -49 -46 -55 -6 -6 -45 -54
-88 -106 -43 -52 -86 -104 -95 -115 -10 -11 -58 -69 -107 -130 -50 -60 -100
-121 -112 -135 -44 -50 -133 -165 -133 -171 0 -8 68 -53 93 -62 13 -5 49 32
164 171 81 97 150 179 153 182 3 3 24 28 45 55 22 28 47 57 55 65 8 8 33 38
55 65 21 28 49 61 62 75 12 14 146 175 298 358 l277 332 106 -132 c134 -167
127 -159 268 -332 155 -189 204 -249 229 -280 196 -246 494 -601 507 -604 18
-3 97 47 98 63 0 8 -68 99 -128 170 -9 11 -31 39 -48 61 -18 23 -41 52 -52 65
-12 13 -84 102 -160 196 -77 95 -154 190 -170 210 -17 21 -84 103 -149 183
-65 80 -168 206 -228 280 -60 74 -127 156 -148 182 -33 40 -37 49 -26 61 8 7
29 32 47 55 19 23 41 50 50 60 10 11 36 42 59 70 43 50 65 59 193 78 58 8 220
5 280 -5 60 -11 83 -17 135 -37 11 -4 23 -8 26 -8 22 -4 139 -87 185 -133 118
-118 210 -277 377 -654 163 -365 231 -484 347 -600 98 -98 123 -114 270 -162
198 -66 261 -72 438 -41 111 19 105 15 195 126 21 26 43 53 50 60 7 7 30 36
52 63 21 28 47 59 57 70 9 11 41 49 70 85 29 36 57 70 63 76 39 44 470 566
517 626 15 19 37 45 50 59 13 14 39 45 58 69 19 24 69 85 111 134 146 176 309
381 309 390 0 7 -64 3 -150 -10 -56 -9 -210 -6 -279 6 -99 17 -188 53 -256
104 -120 90 -208 209 -319 429 -76 152 -93 188 -161 342 -164 371 -259 521
-394 619 -177 130 -374 173 -648 141 -48 -5 -53 -4 -53 14 0 11 -15 31 -32 44
-46 33 -53 37 -63 29z m-4230 -3132 c-3 -5 -12 -10 -18 -10 -7 0 -6 4 3 10 19
12 23 12 15 0z"/>
<path d="M707 3564 c-1 -2 -43 -4 -92 -5 -96 -2 -118 -6 -110 -20 10 -15 -159
-44 -252 -43 -13 0 -23 -4 -23 -8 0 -7 246 -14 288 -9 6 1 12 -3 12 -9 0 -5 8
-10 18 -11 11 -1 9 -4 -8 -9 -22 -7 -21 -8 13 -9 20 -1 37 -5 37 -10 0 -12
-73 -2 -83 12 -5 7 -5 -3 -1 -23 3 -19 7 -36 8 -37 1 -1 36 -3 79 -5 96 -4
102 -18 7 -18 -65 0 -93 -12 -52 -23 16 -4 16 -5 0 -6 -10 0 -18 -5 -18 -9 0
-4 -8 -8 -17 -9 -30 -2 -109 -21 -98 -23 24 -6 84 -6 80 0 -2 4 9 7 26 8 22 0
29 -3 25 -13 -3 -9 0 -12 10 -8 8 3 14 -1 14 -8 0 -11 -13 -13 -51 -10 -44 3
-51 1 -46 -13 4 -10 1 -16 -8 -16 -29 0 -14 -19 20 -26 44 -8 37 -19 -17 -28
l-42 -7 29 -19 c16 -10 32 -17 36 -14 4 2 10 0 14 -6 6 -10 3 -11 -47 -14 -14
0 -30 -5 -35 -10 -4 -5 -3 -7 2 -3 6 3 17 2 25 -4 13 -7 12 -9 -2 -9 -9 0 -19
-4 -22 -9 -3 -5 10 -9 30 -9 19 0 38 -3 41 -6 4 -3 -9 -6 -27 -6 -18 0 -38 -7
-44 -16 -9 -12 -29 -16 -84 -15 -40 0 -72 -3 -72 -7 0 -4 28 -8 63 -8 81 -2
210 -15 203 -21 -2 -3 -26 -7 -53 -10 -71 -7 -66 -13 13 -14 45 -1 60 -3 44
-8 -14 -4 -53 -6 -87 -6 -35 1 -63 -2 -63 -7 0 -8 33 -12 82 -8 14 1 29 -3 32
-8 3 -5 0 -9 -7 -9 -35 -1 -228 -15 -267 -19 -48 -6 -66 -13 -34 -15 14 0 11
-4 -11 -14 l-30 -14 28 -1 c27 0 37 -15 15 -22 -7 -3 7 -5 32 -7 25 -1 54 -3
65 -5 11 -3 41 -5 68 -5 26 -1 47 -4 47 -9 0 -4 -42 -6 -92 -4 -106 4 -115 -7
-12 -14 107 -7 153 -14 159 -24 3 -5 19 -8 35 -6 17 2 30 -1 30 -5 0 -5 -12
-10 -27 -10 -22 -2 -19 -3 12 -9 38 -7 38 -7 8 -9 -17 0 -35 -5 -38 -11 -3 -5
-18 -10 -33 -11 -24 0 -25 -1 -7 -9 16 -7 13 -9 -17 -9 -21 -1 -38 -5 -38 -11
0 -5 6 -7 14 -4 8 3 17 0 21 -6 3 -6 3 -10 -2 -9 -4 1 -28 1 -53 0 l-45 -2 38
-17 c35 -16 54 -38 22 -26 -9 4 -15 0 -15 -10 0 -11 9 -16 26 -16 16 0 23 -4
18 -11 -3 -6 -17 -9 -31 -6 -14 2 -33 -3 -45 -12 -20 -17 -19 -17 26 -16 63 2
58 -13 -6 -21 l-53 -7 30 -13 c17 -7 23 -13 15 -14 -13 0 -13 -1 0 -10 13 -8
12 -10 -2 -10 -19 0 -25 -19 -8 -21 6 -1 15 -3 20 -4 6 -1 20 -3 33 -4 18 -1
19 -3 7 -11 -12 -8 -11 -10 8 -10 12 0 22 -4 22 -10 0 -5 -18 -10 -41 -10 -22
0 -38 -4 -34 -9 3 -6 -12 -11 -32 -13 -37 -3 -38 -3 -14 -17 15 -8 53 -13 104
-12 99 1 98 -5 -2 -13 -41 -4 -77 -9 -80 -11 -8 -8 5 -15 32 -17 43 -4 31 -18
-15 -19 -24 -1 -46 -1 -50 0 -13 2 -9 -17 5 -22 6 -3 1 -6 -13 -7 -14 -1 -34
-3 -45 -6 -11 -2 -37 -4 -57 -5 -21 -1 -38 -6 -38 -11 0 -10 -9 -9 137 -10 68
-1 120 -4 117 -7 -7 -7 -13 -8 -66 -10 -29 -1 -38 -4 -29 -10 14 -9 -79 -25
-146 -25 -35 0 -43 -10 -18 -19 8 -4 64 -5 125 -3 121 3 136 -8 24 -18 -82 -8
-114 -13 -122 -21 -3 -3 3 -6 14 -6 10 -1 33 -3 49 -4 17 -2 47 -4 68 -6 41
-3 51 -19 11 -19 -14 0 -23 -4 -19 -9 3 -5 -3 -12 -12 -14 -10 -3 2 -5 27 -6
l45 -1 -29 -15 c-15 -8 -45 -15 -65 -16 -35 -1 -35 -1 14 -14 28 -7 44 -14 38
-15 -7 -1 -17 -4 -23 -5 -5 -1 -18 -3 -27 -5 -15 -1 -15 -3 -3 -7 8 -3 23 -14
32 -24 17 -17 16 -18 -20 -21 l-37 -3 52 -18 c29 -10 55 -23 58 -27 3 -5 -17
-12 -45 -16 -34 -4 -47 -10 -38 -15 10 -7 10 -9 -2 -10 -8 -1 -19 0 -25 1 -5
1 -6 -2 -2 -7 5 -4 21 -9 35 -9 15 -1 45 -3 67 -4 l40 -3 -45 -9 c-44 -9 -85
-15 -125 -18 -12 -1 -5 -7 20 -15 36 -11 37 -13 13 -14 -39 -1 -35 -17 4 -18
18 0 64 -1 101 -2 38 0 66 -4 64 -8 -3 -5 -52 -7 -109 -7 -61 1 -95 -2 -83 -6
11 -5 31 -9 44 -9 48 -2 7 -18 -54 -21 l-30 -2 34 -8 c19 -5 40 -6 48 -3 7 3
13 1 13 -5 0 -5 -12 -13 -28 -17 -25 -7 -25 -8 -7 -15 18 -8 17 -9 -6 -9 -14
-1 -26 -7 -26 -14 0 -9 13 -13 36 -12 41 1 111 -12 74 -14 -12 0 -23 -6 -25
-12 -2 -6 -27 -12 -56 -13 -29 -1 -58 -8 -65 -15 -10 -10 -8 -11 5 -6 13 5 18
2 18 -10 0 -9 4 -14 8 -11 5 3 22 1 38 -4 22 -6 24 -9 9 -10 -11 -1 -31 -4
-45 -6 -14 -3 -45 -9 -70 -14 -43 -7 -41 -9 21 -14 14 -2 32 -7 40 -12 8 -4
24 -7 37 -5 12 1 22 -2 22 -8 0 -6 -10 -12 -22 -13 -13 0 -27 -2 -33 -3 -5 -2
-23 -4 -40 -5 l-30 -2 28 -8 c16 -5 43 -10 60 -11 18 -2 37 -7 44 -12 11 -8
48 -9 293 -8 103 1 116 3 116 19 1 18 3 35 29 192 9 52 18 109 21 125 2 17 6
41 9 55 3 14 7 40 10 58 3 17 7 44 10 60 2 15 11 70 20 122 8 52 17 106 19
120 3 14 7 41 10 60 3 19 10 62 16 95 5 33 10 63 10 68 0 4 82 6 183 6 174 -2
183 -7 37 -22 -14 -2 -35 -8 -46 -15 -12 -6 -24 -8 -28 -5 -3 3 -6 2 -6 -3 1
-16 37 -54 62 -63 21 -9 21 -10 -9 -10 -18 -1 -33 -5 -33 -11 0 -5 4 -10 10
-10 5 0 7 -6 4 -14 -4 -10 5 -13 35 -12 50 2 54 -11 6 -20 -39 -7 -70 -44 -38
-44 14 0 15 -2 4 -9 -11 -7 -11 -9 0 -14 8 -3 3 -6 -10 -6 -28 -1 -19 -16 14
-24 17 -4 15 -6 -12 -18 -39 -16 -43 -29 -9 -29 14 0 28 -5 31 -10 3 -6 -1
-10 -10 -10 -14 0 -52 -28 -43 -31 2 -1 20 -3 41 -4 59 -4 56 -15 -4 -15 -59
0 -93 -13 -65 -23 9 -4 15 -12 14 -19 -2 -6 11 -15 27 -19 30 -7 30 -7 3 -8
-21 -1 -26 -5 -23 -20 3 -14 -4 -23 -23 -30 l-27 -9 33 -1 c17 -1 32 -5 32
-11 0 -5 -5 -10 -11 -10 -6 0 -17 -7 -25 -15 -14 -13 -13 -15 7 -15 37 0 15
-13 -36 -20 -5 -1 -1 -5 10 -10 18 -8 18 -9 -5 -10 -23 -1 -23 -2 -5 -10 16
-7 12 -9 -19 -9 -53 -1 -42 -9 17 -12 26 -2 53 -6 59 -11 13 -7 -13 -10 -109
-11 -59 0 -54 -17 5 -18 26 -1 50 -1 55 0 4 0 7 -4 7 -10 0 -6 -7 -9 -15 -5
-8 3 -15 1 -15 -4 0 -6 19 -10 43 -11 23 0 60 -4 82 -9 27 -6 3 -7 -74 -3
-103 4 -113 3 -102 -11 8 -9 19 -16 26 -16 8 0 15 -6 18 -12 2 -7 13 -14 25
-14 12 -1 34 -2 49 -3 36 -1 22 -12 -23 -17 -45 -4 -58 -14 -18 -14 22 -1 25
-3 13 -10 -8 -5 -28 -11 -45 -13 -32 -4 -46 -33 -22 -48 11 -7 10 -11 -2 -19
-12 -8 -11 -10 8 -10 20 0 21 -3 12 -21 -7 -11 -9 -24 -5 -27 4 -4 109 -8 234
-10 182 -2 228 0 228 10 0 15 0 10 49 308 19 118 37 229 40 245 2 17 14 84 25
150 42 235 7 325 -149 391 l-65 28 71 17 c69 17 143 56 170 88 35 42 82 165
101 262 54 277 41 441 -43 544 -61 74 -149 106 -331 121 -68 6 -493 12 -498 8z
m388 -574 c3 -5 18 -10 32 -10 25 0 26 0 8 -20 -10 -11 -16 -22 -14 -23 2 -2
15 -11 29 -20 24 -16 24 -17 3 -17 -12 0 -25 -4 -28 -10 -3 -5 -2 -10 3 -10
10 0 3 -60 -10 -77 -6 -7 0 -14 19 -21 22 -8 12 -10 -50 -8 -43 2 -80 0 -82
-4 -2 -4 21 -13 53 -19 101 -22 103 -30 10 -30 -49 -1 -88 -5 -88 -9 0 -4 14
-9 32 -10 39 -3 51 -12 15 -12 -60 0 -62 -13 -6 -39 30 -15 53 -32 51 -39 -1
-7 12 -15 30 -19 l33 -7 -34 -9 c-26 -6 -31 -11 -20 -18 11 -7 9 -9 -8 -9 -13
0 -23 -4 -23 -10 0 -6 -32 -10 -76 -10 l-75 0 6 38 c3 20 10 66 16 102 6 36
13 79 15 95 3 17 9 55 14 85 5 30 12 73 16 95 3 22 8 43 11 48 6 11 111 9 118
-3z m-1 -459 c4 -5 -3 -7 -14 -4 -23 6 -26 13 -6 13 8 0 17 -4 20 -9z"/>
<path d="M6358 3563 c7 -3 16 -2 19 1 4 3 -2 6 -13 5 -11 0 -14 -3 -6 -6z"/>
<path d="M6390 3559 c0 -5 3 -8 8 -7 4 1 41 -3 82 -7 41 -5 79 -8 83 -7 5 1 6
-2 2 -8 -3 -5 -21 -10 -38 -10 -18 0 -39 -5 -47 -10 -11 -7 -11 -10 -2 -10 7
0 10 -4 7 -10 -4 -6 14 -10 46 -10 29 0 50 -2 48 -4 -5 -5 -52 -14 -80 -15 -9
-1 -21 -12 -27 -26 -11 -23 -10 -25 13 -25 32 0 40 -15 9 -16 -13 -1 -31 -5
-40 -8 -23 -9 1 -36 32 -36 12 0 26 -5 30 -12 4 -7 3 -8 -5 -4 -6 4 -14 0 -17
-9 -4 -9 -13 -14 -21 -11 -8 3 -11 1 -8 -4 3 -6 20 -10 37 -10 17 0 29 -2 27
-4 -4 -5 -179 -19 -246 -20 -81 -2 -32 -14 62 -15 52 -1 101 -4 107 -6 7 -2
26 -7 42 -9 42 -7 44 -16 5 -17 l-34 -1 30 -8 c29 -7 29 -8 5 -10 -14 -2 -33
-3 -43 -3 -13 0 -15 -3 -6 -13 8 -10 8 -14 1 -14 -6 0 -9 -7 -6 -15 4 -8 14
-15 23 -15 13 0 13 -2 2 -9 -8 -5 -20 -7 -27 -4 -19 7 -26 -14 -6 -23 9 -4 20
-8 24 -8 3 -1 10 -4 14 -8 4 -5 -13 -8 -37 -8 -41 -1 -43 -2 -25 -15 11 -8 35
-15 55 -15 33 0 38 -8 9 -15 -38 -9 -58 -18 -58 -27 0 -5 -4 -7 -9 -3 -5 3
-12 1 -16 -5 -3 -5 0 -10 9 -10 8 0 16 -4 18 -9 2 -6 31 -11 65 -13 71 -3 74
-17 5 -20 l-47 -1 45 -6 45 -7 -68 -8 c-37 -5 -69 -12 -72 -16 -2 -4 7 -5 20
-2 21 4 24 1 18 -13 -4 -13 -3 -16 5 -11 7 4 12 2 12 -3 0 -6 -10 -12 -22 -12
-15 -1 -11 -4 12 -9 l35 -7 -35 -3 c-19 -2 -41 -3 -47 -3 -7 1 -10 -3 -7 -8 3
-5 23 -7 45 -5 21 3 39 1 39 -5 0 -5 -3 -8 -7 -8 -19 3 -76 -1 -72 -6 3 -2 33
-6 68 -9 85 -6 86 -13 4 -16 -38 -1 -74 -2 -80 -3 -17 -1 -17 -17 0 -17 7 0
13 -8 13 -19 0 -10 -5 -17 -11 -14 -7 2 -12 -3 -12 -12 0 -9 10 -15 26 -15 32
0 16 -17 -21 -22 -35 -5 -48 -18 -20 -19 12 -1 27 -3 32 -4 6 -1 24 -3 40 -4
17 0 30 -6 30 -12 0 -5 -4 -7 -10 -4 -5 3 -17 2 -26 -3 -11 -6 -2 -9 32 -10
69 -3 68 -12 -2 -13 -74 -1 -115 -7 -131 -21 -15 -12 -19 -4 -28 67 -8 60 -11
81 -24 165 -6 36 -13 83 -16 105 -3 22 -12 81 -20 130 -8 50 -17 113 -20 140
-7 61 -15 106 -19 114 -2 3 -7 35 -11 71 -3 36 -10 83 -13 105 l-7 40 -318 0
c-174 0 -317 -3 -317 -7 0 -5 26 -9 58 -9 31 -1 66 -3 77 -5 21 -3 95 -10 155
-15 25 -2 19 -4 -24 -8 -46 -5 -60 -10 -62 -23 -2 -14 5 -18 26 -18 16 0 32
-5 35 -10 4 -6 3 -10 -2 -9 -4 1 -21 1 -38 0 l-30 -2 25 -11 c24 -11 24 -12
-15 -18 -24 -4 -31 -8 -16 -9 31 -1 23 -10 -13 -13 -25 -2 -25 -4 -10 -15 17
-12 17 -13 -2 -14 -17 0 -17 -1 -2 -11 14 -11 13 -14 -10 -32 l-26 -21 29 -6
30 -6 -25 -11 c-26 -11 -23 -12 38 -17 52 -4 50 -15 -4 -15 -44 -1 -47 -2 -31
-14 17 -13 16 -15 -10 -20 -39 -9 -86 -14 -173 -21 -41 -3 -76 -8 -79 -10 -2
-3 45 -5 105 -6 210 -1 278 -11 170 -24 -77 -10 -72 -22 12 -28 6 0 12 -4 12
-9 0 -4 -21 -8 -47 -9 l-48 -1 30 -13 c17 -8 27 -15 23 -16 -5 -1 -12 -3 -18
-4 -5 -1 -18 -4 -27 -5 -13 -1 -11 -4 7 -10 23 -7 23 -8 -10 -10 -19 -1 -48
-4 -65 -5 -16 -2 -58 -5 -93 -5 -100 -3 -72 -13 64 -25 78 -7 109 -19 98 -36
-3 -5 12 -9 32 -9 48 0 39 -10 -10 -12 -40 -1 -57 -15 -35 -29 12 -7 11 -9 -1
-9 -12 0 -12 -2 -2 -9 11 -7 11 -11 -2 -24 -19 -19 -20 -28 -3 -26 6 1 21 1
32 0 17 -1 18 -3 5 -11 -8 -5 -26 -10 -39 -10 -24 0 -24 0 -5 -15 10 -8 28
-15 39 -15 17 0 17 -2 5 -10 -13 -9 -13 -10 0 -11 8 -1 -3 -5 -25 -8 l-40 -7
50 -16 50 -15 -33 -8 c-27 -5 -31 -9 -21 -21 9 -11 7 -14 -13 -14 -13 0 -33
-7 -44 -15 -19 -14 -18 -14 4 -16 60 -4 62 -14 7 -30 -25 -7 -45 -17 -45 -22
0 -4 4 -6 9 -3 5 3 24 3 42 -1 l34 -7 -30 -8 c-16 -4 -48 -10 -70 -13 -22 -3
-49 -7 -60 -10 -11 -2 -40 -4 -64 -4 -78 -2 -34 -14 57 -17 123 -3 120 -2 102
-14 -12 -8 -10 -10 8 -10 13 0 20 -4 17 -10 -4 -6 -11 -8 -16 -5 -5 4 -9 1 -9
-4 0 -6 9 -11 20 -11 11 0 20 -4 20 -10 0 -5 -3 -9 -7 -8 -5 1 -21 -2 -36 -7
-20 -5 -25 -10 -16 -16 19 -12 -35 -23 -106 -22 -65 1 -58 -11 14 -22 67 -10
92 -22 84 -41 -3 -9 0 -20 8 -25 10 -6 8 -9 -11 -10 -22 0 -21 -2 10 -13 19
-8 39 -11 44 -8 5 3 6 0 3 -5 -4 -6 -24 -13 -46 -17 -48 -7 -64 -26 -24 -27
l28 0 -32 -16 -32 -16 22 -19 c12 -11 18 -17 12 -15 -5 3 -37 7 -70 11 -60 6
-92 11 -150 22 -36 7 -34 4 76 -84 47 -38 80 -58 88 -53 19 12 141 4 159 -11
13 -11 14 -11 7 1 -6 11 -5 12 6 5 8 -4 20 -9 27 -10 38 -6 14 -12 -60 -14
-112 -3 -108 -3 -103 -10 2 -3 25 -7 52 -9 68 -3 67 -11 -1 -11 -66 0 -87 -15
-80 -54 2 -15 0 -26 -7 -26 -20 0 -3 -24 22 -31 20 -6 18 -7 -13 -8 -30 -1
-36 -5 -35 -21 1 -12 8 -20 19 -20 10 0 18 -4 18 -9 0 -5 10 -7 23 -4 18 4 19
3 7 -6 -8 -6 -28 -11 -43 -11 -16 0 -26 -4 -22 -10 3 -5 15 -10 26 -10 10 0
19 -4 19 -10 0 -5 10 -10 23 -10 20 -1 20 -2 4 -11 -9 -6 -33 -11 -51 -12 -44
-3 -36 -17 10 -17 19 0 34 -5 34 -11 0 -5 -4 -8 -9 -5 -5 3 -20 -3 -32 -14
l-24 -19 57 -1 c31 0 59 -3 61 -7 5 -7 -11 -9 -115 -12 -51 -1 -52 -27 -2 -29
20 -1 40 -4 43 -8 3 -3 -18 -4 -46 -3 -29 2 -56 -1 -60 -5 -5 -4 -3 -7 2 -6 6
1 19 2 30 1 17 -1 18 -3 5 -11 -12 -8 -10 -10 10 -10 19 0 22 -2 10 -9 -8 -6
-19 -7 -25 -3 -5 3 -4 -2 4 -11 7 -9 17 -15 21 -12 5 3 18 1 31 -3 19 -8 15
-10 -29 -16 l-52 -7 20 -22 c19 -20 20 -22 3 -28 -10 -3 -23 -4 -30 -2 -14 5
-24 -29 -20 -69 1 -16 8 -28 16 -28 10 0 11 -4 3 -12 -8 -10 23 -13 151 -11
89 1 187 2 219 2 l56 1 7 53 c3 28 10 75 15 102 12 65 18 98 26 154 4 25 8 55
10 66 2 11 13 79 25 150 12 72 22 137 24 145 1 8 6 35 10 60 4 25 9 52 10 60
2 8 8 50 15 93 7 42 16 77 19 77 3 0 14 -7 24 -15 11 -7 26 -11 35 -8 13 3 13
1 -2 -11 -11 -9 -23 -16 -28 -16 -4 0 -8 -4 -8 -10 0 -5 9 -10 20 -10 11 0 20
-4 20 -9 0 -5 8 -12 18 -14 11 -3 7 -5 -10 -6 -30 -1 -49 -21 -21 -22 10 0 51
0 92 1 40 1 71 -3 68 -7 -3 -5 -29 -8 -57 -7 -28 0 -53 -3 -56 -8 -3 -5 -2 -8
3 -7 4 1 17 0 28 -1 15 -2 12 -4 -10 -10 l-30 -8 30 -2 30 -2 -26 -8 c-15 -4
-39 -6 -54 -5 -31 4 -25 -7 8 -12 12 -2 24 -8 25 -13 2 -6 11 -10 20 -11 10
-1 7 -4 -8 -9 -17 -5 -19 -8 -7 -9 31 -2 18 -21 -15 -21 l-32 0 23 -16 c18
-13 20 -18 10 -25 -11 -7 -10 -9 3 -9 9 0 20 -5 24 -12 5 -8 2 -9 -10 -5 -13
5 -15 3 -7 -12 6 -10 8 -20 6 -23 -2 -2 21 -4 51 -3 31 0 57 -3 60 -6 2 -3 -7
-6 -19 -6 -70 -1 -129 -6 -104 -10 25 -4 27 -7 15 -21 -8 -10 -9 -13 -1 -9 6
4 14 3 18 -2 3 -5 14 -8 25 -6 16 3 18 1 11 -14 -9 -15 -5 -17 35 -16 25 0 50
-2 55 -6 6 -3 -19 -7 -55 -8 -37 -1 -76 -6 -89 -11 l-22 -9 22 -6 c12 -4 19
-13 17 -20 -4 -9 7 -12 38 -11 24 1 61 -1 83 -5 33 -5 27 -7 -35 -9 -61 -2
-69 -4 -40 -10 36 -8 26 -11 -35 -15 -33 -1 -36 -21 -8 -42 14 -11 9 -13 -33
-14 -27 -1 -59 -1 -71 -1 -13 1 -23 -3 -23 -7 0 -5 32 -12 70 -15 39 -4 70
-12 70 -17 0 -5 10 -8 23 -5 12 2 31 0 42 -5 15 -6 9 -8 -25 -10 -38 -2 -40
-3 -12 -6 47 -6 30 -21 -20 -18 l-43 3 39 -12 c25 -8 35 -15 28 -20 -7 -4 -16
-5 -21 -2 -5 3 -11 -1 -15 -9 -4 -11 3 -15 27 -16 18 -1 38 -1 45 0 6 1 12 -3
12 -9 0 -5 -3 -9 -7 -9 -5 1 -33 1 -63 0 -61 -1 -59 -21 4 -26 47 -3 54 -11
16 -18 -29 -6 -42 -26 -17 -28 6 0 3 -4 -8 -9 -18 -8 -17 -9 8 -9 32 -1 37
-26 6 -34 -28 -7 -15 -27 17 -27 14 0 22 -4 19 -10 -3 -5 -18 -10 -32 -10 -15
0 -24 -3 -21 -6 6 -5 449 -6 455 0 2 1 14 70 28 152 14 82 28 160 30 173 2 13
7 45 11 70 4 25 8 55 10 66 3 11 7 36 10 55 2 19 9 58 14 85 8 44 15 89 25
160 3 16 72 438 101 610 2 17 7 37 9 45 2 8 6 35 9 60 3 25 8 54 10 65 6 37
15 90 21 125 26 171 36 207 54 195 4 -2 32 -7 62 -10 30 -3 70 -8 90 -11 20
-2 52 -7 71 -9 19 -2 46 -9 59 -14 21 -9 22 -10 4 -11 -76 -5 -82 -20 -7 -20
33 0 63 -4 66 -9 3 -4 -11 -7 -32 -5 -35 4 -36 3 -18 -11 18 -13 18 -15 3 -16
-9 -1 -21 -3 -27 -4 -5 -1 -22 -3 -37 -4 -48 -2 -3 -18 57 -20 19 -1 22 -3 10
-10 -14 -10 -108 -27 -123 -23 -5 2 -6 -2 -2 -7 3 -6 13 -7 22 -4 12 5 15 2
11 -9 -5 -11 0 -15 15 -15 51 -1 67 -3 67 -11 0 -5 -17 -8 -37 -8 -26 0 -37
-4 -35 -13 1 -7 -1 -10 -5 -8 -5 2 -24 -1 -43 -9 l-35 -12 58 -1 c33 -1 57 -5
57 -12 0 -6 -10 -10 -22 -9 -69 6 -86 1 -97 -30 -9 -28 -8 -32 16 -41 16 -6
23 -13 17 -19 -11 -11 -112 -25 -218 -29 -21 -1 -27 -4 -19 -12 6 -6 70 -11
169 -11 152 0 156 -1 104 -13 l-55 -13 40 -2 40 -2 -38 -8 c-45 -8 -73 -30
-39 -30 15 0 20 -5 16 -15 -5 -11 1 -15 22 -16 29 -1 29 -1 4 -8 -14 -5 -33
-7 -43 -5 -10 2 -15 -1 -13 -5 3 -4 26 -7 51 -6 25 1 45 -2 45 -6 0 -5 -22 -9
-50 -9 -27 0 -50 -4 -50 -10 0 -5 6 -10 13 -11 6 -1 1 -5 -13 -9 -25 -8 -25
-8 5 -10 56 -4 87 -9 93 -14 5 -6 -35 -8 -180 -10 -78 -1 -113 -10 -55 -14 18
-2 46 -5 62 -8 17 -3 43 -7 59 -9 16 -1 31 -7 35 -11 3 -5 20 -11 36 -13 42
-4 45 -11 4 -11 -54 0 -105 -22 -101 -43 2 -9 8 -15 13 -12 5 4 9 3 9 -2 0 -4
18 -8 40 -7 21 0 37 -3 34 -8 -3 -4 -18 -8 -34 -8 -16 0 -36 -8 -46 -17 -10
-10 -35 -19 -56 -20 -36 -1 -143 -31 -136 -38 2 -2 21 -6 43 -8 59 -8 78 -17
65 -32 -9 -11 -3 -17 24 -30 20 -10 33 -21 30 -26 -3 -5 -10 -7 -15 -4 -5 4
-9 2 -9 -4 0 -5 6 -12 13 -14 6 -3 3 -6 -8 -7 l-20 -1 20 -9 c19 -8 19 -8 -5
-18 -24 -10 -23 -11 15 -13 l40 -2 -35 -7 c-19 -4 -27 -8 -17 -9 31 -2 18 -21
-15 -22 -24 -1 -27 -3 -10 -6 12 -2 22 -9 22 -14 0 -5 15 -9 33 -9 21 0 27 -3
19 -9 -7 -4 -25 -6 -39 -3 -21 4 -25 2 -20 -10 3 -9 0 -21 -6 -28 -9 -10 -9
-11 0 -6 6 3 14 2 18 -4 4 -6 -5 -10 -22 -10 l-28 -1 24 -13 25 -14 -31 -6
c-30 -7 -54 -47 -33 -54 16 -6 12 -22 -5 -22 -10 0 -15 -10 -15 -30 0 -22 7
-33 28 -44 15 -8 23 -16 17 -17 -5 -1 8 -5 30 -9 l40 -8 -45 0 c-25 0 -52 -1
-60 -1 -20 -1 -23 -52 -3 -66 8 -6 13 -15 12 -20 -4 -17 13 -45 27 -45 20 0
17 -20 -3 -21 -10 -1 -21 -1 -25 0 -21 3 -5 -18 17 -23 14 -4 25 -11 25 -17 0
-6 -4 -7 -10 -4 -15 9 -12 -2 6 -30 11 -17 26 -25 45 -25 15 0 31 -5 34 -10 4
-6 11 -8 16 -5 5 4 16 2 25 -3 12 -7 3 -11 -36 -16 -29 -4 -51 -9 -49 -11 2
-2 44 -6 92 -8 104 -6 127 -16 39 -18 -75 -2 -79 -2 -87 -11 -4 -3 5 -5 19 -4
27 3 37 -10 11 -16 -25 -5 -1 -29 36 -34 55 -8 68 -16 39 -24 -23 -7 -22 -8
10 -9 26 -1 31 -4 20 -11 -12 -8 -11 -10 8 -10 30 0 35 -2 50 -17 9 -9 36 -11
95 -8 125 6 195 36 288 124 50 48 63 56 76 46 9 -7 13 -17 9 -23 -4 -7 0 -12
11 -13 16 0 16 -1 -2 -9 -23 -10 -20 -11 57 -14 82 -3 84 -16 3 -16 -38 0 -66
-2 -63 -5 5 -5 18 -9 78 -21 13 -3 27 -10 31 -15 3 -6 9 -10 13 -10 3 1 9 0
14 -1 4 -1 47 -2 95 -3 81 -1 88 0 92 19 4 21 23 136 32 191 3 25 33 208 48
295 2 14 7 43 10 65 3 22 10 63 15 90 5 28 12 68 15 90 3 22 7 51 10 65 17 93
45 263 45 280 0 13 -16 15 -92 14 -51 -1 -184 -4 -295 -6 -186 -3 -225 -7
-190 -21 6 -3 2 -6 -10 -6 -33 -1 -31 -39 2 -47 14 -3 22 -10 19 -15 -3 -5 -9
-7 -14 -4 -4 3 -15 -6 -24 -20 -11 -17 -13 -25 -5 -25 7 0 5 -8 -6 -20 -16
-18 -16 -20 -2 -20 10 0 17 -4 17 -10 0 -5 -6 -10 -14 -10 -8 0 -18 -5 -21
-10 -4 -6 -3 -10 2 -9 4 1 28 1 52 0 58 -1 46 -13 -13 -13 -26 0 -44 -4 -40
-9 3 -5 12 -9 20 -9 8 0 12 -5 9 -10 -4 -6 -11 -7 -17 -4 -11 7 -28 -13 -28
-33 0 -9 25 -13 88 -14 48 -1 76 -4 63 -8 -20 -5 -17 -8 24 -19 56 -15 54 -21
-6 -26 -63 -6 -66 -7 -44 -15 18 -7 17 -9 -10 -24 l-30 -16 28 -1 c15 0 27 -5
27 -12 0 -6 -3 -9 -6 -5 -8 8 -64 -20 -64 -32 0 -12 29 -23 41 -15 5 3 9 0 9
-5 0 -6 -10 -12 -22 -12 -18 -1 -19 -2 -5 -6 17 -4 16 -6 -4 -24 -12 -10 -17
-19 -11 -19 19 0 14 -20 -5 -20 -16 -1 -16 -2 1 -15 19 -15 19 -15 -5 -16
l-24 0 23 -11 c13 -7 21 -17 18 -25 -4 -9 5 -13 32 -14 55 -1 114 -8 120 -14
3 -3 -21 -5 -54 -6 -61 -1 -116 -7 -123 -15 -4 -4 44 -8 62 -5 4 0 7 -3 7 -9
0 -5 -13 -10 -29 -10 -17 0 -33 -4 -36 -10 -3 -5 -15 -10 -26 -10 -19 0 -19 0
1 -22 18 -20 15 -33 -6 -28 -4 1 -10 -3 -14 -10 -4 -6 -34 -12 -68 -13 -50 -2
-65 2 -82 18 -26 26 -30 78 -14 169 7 39 15 89 18 111 4 22 9 51 11 65 2 14 9
54 15 90 5 36 12 76 15 90 4 26 43 261 51 315 3 17 9 56 15 88 5 32 12 70 14
85 16 122 59 340 72 372 27 62 86 83 184 63 27 -5 30 -8 14 -13 -18 -6 -17 -9
11 -23 17 -9 43 -18 58 -19 48 -7 27 -23 -29 -23 -46 0 -53 -2 -39 -12 9 -7
21 -10 25 -7 5 3 9 1 9 -5 0 -5 -16 -15 -35 -22 l-36 -13 37 -19 c20 -10 41
-16 48 -14 7 3 19 1 27 -4 13 -8 -16 -12 -84 -12 -22 1 -10 -13 18 -20 11 -3
2 -5 -21 -6 -39 -1 -40 -2 -36 -31 2 -17 7 -32 11 -35 4 -2 37 -5 74 -6 84 -3
78 -12 -10 -16 -44 -2 -72 -8 -84 -19 -28 -25 -23 -34 19 -35 30 0 33 -2 17
-9 -17 -7 -17 -9 -2 -9 9 -1 17 -5 17 -10 0 -4 -8 -8 -17 -8 -43 0 -49 -3 -33
-13 12 -8 11 -10 -7 -10 -26 0 -39 -18 -24 -33 10 -10 450 -18 493 -9 17 4 24
33 54 240 5 34 5 168 0 202 -25 175 -150 300 -344 343 -75 17 -282 23 -282 8
0 -5 17 -12 38 -14 20 -2 3 -4 -38 -5 -52 -2 -70 -5 -60 -12 10 -6 -47 -9
-168 -7 -100 1 -182 -1 -182 -4 0 -7 119 -25 224 -34 92 -8 106 -26 15 -21
-61 4 -84 1 -120 -16 -73 -35 -66 -34 -209 -24 -103 8 -135 1 -49 -10 24 -3
55 -7 69 -10 31 -5 159 -17 183 -18 9 0 17 -4 17 -8 0 -7 -29 -10 -112 -11
-16 0 -28 -4 -28 -9 0 -4 9 -8 19 -8 19 0 38 -17 29 -25 -2 -3 -14 -6 -26 -8
-12 -2 -25 -7 -29 -12 -5 -4 -2 -5 5 -1 6 4 12 2 12 -3 0 -14 -17 -14 -25 -1
-4 7 -11 7 -18 2 -7 -5 -37 -10 -67 -11 -30 -1 -92 -4 -138 -6 l-82 -4 5 26
c2 14 7 47 11 72 4 25 8 55 10 66 3 11 7 38 9 59 3 21 8 43 11 47 6 10 18 9
-171 15 -82 2 -198 6 -257 8 -62 2 -108 0 -108 -5z m-167 -1336 c-7 -2 -19 -2
-25 0 -7 3 -2 5 12 5 14 0 19 -2 13 -5z m-656 -29 c-3 -3 -12 -4 -19 -1 -8 3
-5 6 6 6 11 1 17 -2 13 -5z m-17 -438 c0 -2 -7 -6 -15 -10 -8 -3 -15 -1 -15 4
0 6 7 10 15 10 8 0 15 -2 15 -4z"/>
<path d="M4900 3549 c0 -8 38 -14 63 -10 4 0 7 -3 7 -9 0 -5 -15 -8 -34 -6
-19 1 -33 -1 -30 -6 5 -8 -38 -10 -218 -10 -54 0 -98 -3 -98 -7 0 -4 6 -8 13
-8 6 0 57 -4 112 -8 55 -4 119 -8 143 -8 49 -1 53 -13 13 -51 -25 -24 -38 -28
-100 -30 -82 -3 -102 -11 -37 -15 25 -1 55 -4 68 -7 13 -3 62 -7 111 -11 118
-8 111 -15 -23 -22 -25 -2 -39 -5 -32 -8 10 -4 10 -8 1 -19 -9 -11 -6 -14 17
-15 l29 -1 -30 -8 c-16 -4 -24 -8 -17 -9 17 -1 15 -21 -2 -21 -8 0 -18 -5 -22
-12 -5 -7 -2 -9 7 -6 8 3 23 2 34 -2 17 -7 15 -9 -15 -18 l-35 -10 32 -1 c41
-1 54 -21 14 -21 -17 0 -31 -4 -31 -9 0 -12 25 -32 34 -26 3 3 3 1 -1 -4 -5
-5 -23 -11 -42 -13 l-34 -3 44 -22 44 -23 -100 -1 c-122 -1 -108 -12 50 -38
65 -11 95 -19 73 -20 -21 0 -38 -6 -38 -11 0 -6 -3 -10 -7 -9 -18 3 -52 -14
-47 -22 3 -5 0 -9 -7 -9 -22 0 3 -18 46 -34 l40 -15 -35 -1 c-19 -1 -39 -3
-45 -5 -5 -1 -21 -3 -34 -3 -19 -2 -21 -5 -12 -16 10 -12 3 -18 -41 -34 -29
-11 -77 -25 -105 -33 -29 -7 -53 -16 -53 -20 0 -18 32 -23 135 -22 61 0 102
-1 92 -4 -22 -6 -12 -23 14 -23 33 0 21 -20 -13 -21 -18 -1 -37 -1 -43 0 -5 1
-1 -6 9 -14 19 -14 19 -15 -8 -15 -24 0 -27 -2 -16 -15 10 -12 9 -16 -4 -21
-12 -5 -16 -15 -12 -37 6 -40 21 -48 79 -44 26 2 47 0 47 -5 0 -4 -17 -9 -37
-10 -66 -3 -72 -3 -79 -11 -4 -4 8 -7 26 -7 18 0 30 -3 26 -7 -8 -8 -11 -9
-48 -13 -15 -1 -4 -7 27 -15 45 -11 40 -20 -8 -15 -10 1 -30 -10 -44 -24 l-25
-25 26 -7 c20 -5 23 -9 13 -18 -7 -7 -21 -16 -32 -21 -18 -7 -18 -9 -2 -12 21
-5 22 -12 1 -28 -14 -10 -15 -14 -3 -33 8 -12 23 -22 33 -22 15 0 17 -3 8 -12
-12 -12 -85 -15 -135 -5 -16 3 -25 2 -22 -4 4 -5 13 -9 20 -9 8 0 33 -7 55
-16 31 -13 40 -21 40 -40 0 -13 -4 -24 -10 -24 -5 0 -10 -7 -10 -15 0 -8 -6
-24 -12 -35 -11 -16 -9 -22 7 -34 19 -14 16 -15 -34 -16 -71 0 -62 -7 17 -13
74 -5 88 -13 38 -22 -20 -4 -36 -11 -36 -16 0 -5 3 -8 8 -7 4 0 18 -3 32 -9
24 -10 23 -11 -25 -25 l-50 -14 57 -17 c31 -9 69 -17 85 -17 22 0 25 -2 13
-10 -8 -5 -46 -10 -83 -10 -90 0 -79 -15 15 -18 76 -3 129 -10 137 -18 6 -5
-24 -33 -63 -58 -22 -14 -39 -17 -77 -12 -53 7 -102 -1 -93 -15 3 -5 19 -9 36
-9 42 0 29 -11 -13 -12 l-34 -1 30 -13 30 -12 -35 -5 c-21 -2 -5 -5 40 -7 41
-2 87 -4 102 -4 53 -3 37 -13 -24 -15 -96 -3 -139 -10 -153 -25 -17 -17 -9
-26 21 -26 13 0 25 -4 28 -9 4 -5 -5 -8 -19 -6 -14 1 -25 -2 -25 -6 0 -5 8 -9
18 -10 9 0 2 -5 -15 -10 -18 -5 -33 -14 -33 -19 0 -17 32 -40 58 -41 15 0 36
-4 47 -9 21 -9 24 -8 -77 -14 -33 -2 -46 -13 -24 -22 23 -9 20 -21 -6 -28 -22
-6 -21 -8 12 -22 l35 -16 -35 -12 c-47 -17 -50 -40 -8 -53 32 -11 33 -11 6
-12 -30 -1 -39 -20 -10 -22 9 0 125 -3 257 -5 224 -4 241 -3 242 14 1 9 14 87
28 172 14 85 28 166 30 180 2 14 15 93 29 175 14 83 28 173 31 200 4 28 9 52
10 55 2 3 6 26 10 50 3 25 11 72 16 105 11 63 15 87 24 145 2 19 23 145 45
280 23 135 43 256 45 270 2 14 7 42 10 64 4 21 8 48 11 59 2 12 6 39 9 62 3
22 10 63 15 90 11 57 17 93 25 150 3 22 8 52 11 67 l6 28 -256 -1 c-154 0
-256 -4 -256 -10z m143 -196 c-7 -2 -19 -2 -25 0 -7 3 -2 5 12 5 14 0 19 -2
13 -5z"/>
<path d="M7586 3552 c-3 -5 1 -9 9 -9 8 0 15 4 15 9 0 4 -4 8 -9 8 -6 0 -12
-4 -15 -8z"/>
<path d="M2253 3543 c-28 -5 -30 -23 -3 -24 11 -1 25 -3 30 -4 6 -1 22 -4 38
-5 15 -2 -7 -7 -48 -11 -41 -4 -91 -10 -110 -13 -19 -2 -71 -8 -115 -12 -44
-3 -82 -8 -84 -10 -2 -2 29 -5 70 -5 76 -1 188 -6 224 -9 13 -2 10 -4 -10 -9
-20 -4 -30 -12 -30 -25 0 -11 -9 -22 -20 -26 -19 -7 -19 -7 0 -18 18 -10 18
-11 -9 -18 l-29 -7 34 -18 34 -18 -35 -1 c-19 -1 -42 -3 -51 -5 -8 -1 -42 -6
-75 -9 -32 -4 -77 -9 -99 -12 -22 -3 -57 -6 -78 -8 -59 -5 -56 -16 4 -18 30 0
65 -2 79 -4 14 -1 63 -3 110 -4 46 -2 96 -6 110 -11 23 -7 22 -7 -10 -9 -19
-1 -39 -2 -43 -1 -5 1 -6 -3 -2 -9 3 -5 14 -10 23 -10 15 -1 15 -2 -2 -15 -20
-15 -20 -15 0 -15 18 -1 18 -1 1 -11 -22 -13 -13 -29 16 -30 20 -1 21 -2 2 -6
-11 -3 -31 -10 -45 -15 -25 -10 -25 -11 15 -29 l40 -18 -35 -1 c-37 -1 -90 -5
-210 -15 -72 -6 -156 -23 -149 -30 2 -1 30 -6 62 -9 31 -3 83 -9 115 -13 31
-3 72 -6 90 -6 36 1 45 -16 10 -18 -18 -1 -16 -3 10 -12 21 -6 31 -15 28 -24
-3 -7 0 -13 7 -13 8 0 6 -4 -3 -10 -13 -9 -13 -10 0 -10 13 0 13 -2 0 -9 -8
-6 -17 -8 -21 -5 -4 2 -12 -3 -19 -11 -7 -8 -17 -12 -23 -8 -6 3 -7 1 -3 -5 4
-7 17 -12 28 -12 20 0 17 -13 -3 -16 -5 -1 -17 -2 -26 -4 -13 -1 -10 -5 10
-14 l28 -12 -41 -13 c-35 -10 -40 -15 -29 -27 10 -12 9 -18 -4 -32 -13 -12
-37 -17 -96 -18 -86 -1 -135 -10 -127 -22 3 -5 24 -9 48 -11 24 -1 57 -4 73
-6 17 -2 52 -3 79 -4 50 -1 57 -8 16 -16 -29 -6 -39 -15 -16 -15 9 0 14 -5 11
-10 -4 -6 -11 -7 -17 -4 -6 4 -8 1 -6 -7 3 -8 -2 -23 -11 -33 -15 -18 -15 -19
5 -14 12 3 28 2 35 -2 8 -6 0 -11 -24 -15 -42 -8 -48 -21 -14 -35 17 -7 18 -9
5 -9 -26 -1 -22 -19 5 -24 13 -3 7 -5 -16 -6 -22 0 -36 -5 -32 -11 7 -11 -17
-17 -115 -26 -109 -10 -109 -10 -117 -18 -4 -4 60 -4 142 -1 82 3 146 2 141
-2 -8 -9 -13 -10 -48 -12 -14 -1 -18 -4 -12 -9 19 -13 12 -42 -13 -48 -43 -11
-20 -34 35 -34 25 -1 24 -2 -13 -20 -22 -10 -43 -16 -47 -14 -5 3 -7 -5 -5
-18 1 -13 9 -26 17 -30 11 -5 8 -7 -10 -8 -14 -2 -29 -2 -35 -1 -5 1 -1 -6 10
-14 20 -15 19 -16 -3 -21 -26 -7 -19 -24 10 -24 12 0 19 -3 16 -6 -5 -5 -55
-12 -138 -19 -19 -2 -39 -4 -45 -4 -5 -1 2 -9 18 -17 15 -8 27 -17 27 -20 0
-3 -3 -3 -7 -1 -5 3 -17 1 -28 -4 -12 -5 14 -7 67 -6 60 1 92 -3 100 -12 7 -7
9 -12 3 -11 -32 7 -57 -1 -51 -15 7 -18 -9 -25 -112 -50 -80 -20 -102 -35 -50
-35 38 0 118 -34 118 -50 0 -5 -7 -10 -15 -10 -13 0 -13 -3 -3 -20 10 -15 10
-22 1 -31 -9 -9 -26 -8 -71 5 -32 9 -74 16 -92 16 -32 0 -33 -1 -18 -16 12
-12 42 -18 110 -22 98 -5 116 -9 80 -19 -32 -8 -27 -18 10 -21 46 -4 48 -12 2
-12 -35 -1 -37 -2 -21 -14 24 -18 22 -23 -15 -30 -31 -6 -118 -36 -163 -57
-14 -6 -1 -8 43 -5 34 2 62 0 62 -5 0 -5 11 -9 25 -9 36 0 31 -14 -12 -29 -35
-13 -36 -14 -15 -22 30 -11 28 -27 -5 -35 -25 -7 -25 -8 -7 -21 16 -12 17 -15
4 -23 -20 -13 -80 -30 -107 -30 -40 0 -35 -21 16 -71 49 -48 50 -50 29 -59
-25 -9 7 -11 346 -13 l189 -2 14 60 c7 33 30 120 50 193 l37 132 117 0 c65 0
120 -4 124 -9 3 -5 -3 -12 -12 -14 -10 -3 2 -6 27 -7 30 -2 37 -4 20 -7 -14
-3 -28 -9 -31 -15 -3 -5 -12 -10 -20 -11 -63 -10 -36 -47 35 -48 41 0 46 -2
28 -9 -12 -5 -38 -10 -57 -12 -35 -2 -44 -11 -25 -23 8 -5 7 -11 0 -20 -10
-11 -8 -13 9 -10 12 2 21 0 21 -6 0 -5 -7 -9 -15 -9 -8 0 -19 -9 -25 -20 -14
-27 2 -43 55 -57 l40 -11 -37 -2 c-21 -1 -42 -4 -48 -5 -5 -1 -26 -3 -45 -4
-19 0 -35 -4 -35 -8 0 -10 49 -33 69 -33 13 -1 12 -4 -3 -15 -11 -8 -16 -15
-10 -16 12 -1 112 -5 347 -13 l187 -7 1 138 c1 76 2 197 4 268 2 72 6 285 9
475 11 549 15 737 21 1028 l5 272 -367 -2 c-203 -1 -378 -3 -390 -5z m330
-543 c21 -1 21 -1 -3 -15 -14 -8 -19 -14 -11 -15 11 0 11 -4 -2 -18 -25 -28
-22 -62 6 -62 l22 -1 -24 -13 c-17 -10 -20 -15 -11 -21 10 -6 9 -11 -4 -21
-17 -12 -16 -13 3 -24 12 -6 19 -15 16 -21 -4 -5 -10 -7 -15 -4 -5 3 -11 1
-15 -5 -3 -5 -2 -10 3 -10 5 0 8 -16 8 -35 -1 -19 -4 -35 -8 -35 -6 0 -21 -34
-23 -55 -1 -5 5 -17 12 -26 11 -14 11 -18 -1 -28 -14 -12 -11 -46 6 -68 6 -7
3 -12 -8 -15 -16 -3 -16 -4 -2 -19 14 -14 14 -18 -3 -40 -17 -23 -17 -24 3
-46 l21 -23 -24 0 -24 -1 24 -19 23 -20 -23 0 c-23 -1 -23 -1 -5 -15 17 -13
18 -15 3 -15 -24 0 -21 -15 6 -28 21 -10 21 -11 2 -11 -16 -1 -21 -9 -23 -33
-2 -18 -5 -34 -7 -36 -2 -3 0 -13 6 -23 9 -17 5 -19 -38 -20 -26 0 -74 -2
-105 -4 -36 -2 -58 0 -58 7 0 9 96 358 119 433 5 17 35 125 68 240 32 116 59
200 61 188 2 -16 10 -23 25 -23z"/>
<path d="M3950 3521 c-5 -9 -10 -12 -10 -7 0 5 -6 3 -13 -3 -8 -6 -58 -13
-113 -16 -317 -16 -403 -32 -194 -35 167 -2 181 -17 17 -18 -55 0 -102 -4
-105 -7 -4 -4 -2 -6 3 -5 20 4 58 0 53 -6 -4 -3 -54 -7 -113 -9 -59 -2 -109
-6 -113 -9 -6 -7 54 -9 136 -7 31 1 52 -2 52 -8 0 -6 -10 -12 -22 -12 -15 -1
-11 -4 12 -9 l35 -7 -31 -2 c-17 0 -34 -4 -38 -8 -4 -4 -21 -8 -39 -9 -18 0
-49 -6 -69 -12 -23 -6 -40 -7 -44 -1 -3 5 -10 9 -16 9 -6 0 -3 -8 8 -19 10
-10 21 -18 24 -18 13 2 50 -16 50 -24 0 -17 -21 -50 -28 -45 -5 3 -14 1 -22
-4 -11 -7 -3 -11 28 -16 l42 -7 -21 -18 c-15 -13 -18 -19 -8 -19 9 -1 6 -8 -9
-20 -13 -11 -59 -27 -103 -36 -43 -10 -79 -20 -79 -23 0 -3 19 -6 43 -7 167
-4 205 -9 204 -26 -1 -10 -6 -17 -12 -17 -24 3 -88 -1 -84 -5 3 -3 20 -8 39
-11 19 -3 36 -8 39 -11 4 -4 -74 -8 -93 -5 -62 12 -222 -7 -204 -24 1 -2 32
-6 68 -9 97 -10 132 -15 165 -25 27 -8 24 -9 -25 -11 -55 -1 -55 -1 -25 -15
17 -7 26 -14 20 -15 -5 -1 -19 -3 -30 -5 -16 -3 -76 -8 -169 -14 -5 -1 -6 -4
-2 -8 8 -8 29 -11 123 -13 40 -2 70 -7 67 -11 -3 -5 -14 -9 -25 -9 -21 0 -26
-16 -6 -23 7 -4 6 -6 -4 -6 -23 -1 -33 -31 -16 -48 11 -12 38 -15 205 -22 30
-1 28 -19 -5 -33 -45 -18 -71 -18 -135 2 -67 21 -97 18 -76 -8 10 -12 10 -16
0 -19 -8 -3 -5 -11 10 -24 22 -18 22 -18 3 -19 -19 0 -18 -2 4 -19 l24 -19
-44 -20 c-36 -17 -40 -20 -20 -21 19 -1 22 -4 13 -13 -9 -9 -8 -14 4 -23 13
-9 -4 -11 -72 -10 -49 1 -98 -1 -109 -5 -16 -6 -14 -9 15 -18 19 -6 57 -14 85
-18 56 -8 88 -30 64 -45 -8 -5 -9 -9 -4 -9 6 0 1 -7 -9 -15 -11 -8 -14 -15 -8
-15 7 0 12 -7 12 -15 0 -14 -13 -20 -34 -16 -5 1 -3 -5 4 -14 7 -8 11 -17 9
-19 -2 -2 -35 -11 -74 -19 l-70 -15 93 -1 c59 -1 92 -5 92 -12 0 -6 -6 -9 -12
-6 -7 2 -26 -5 -42 -16 l-29 -21 34 -12 c19 -7 28 -13 22 -14 -7 -2 -17 -4
-23 -5 -5 -1 -16 -3 -22 -4 -9 -1 -9 -4 1 -10 12 -8 13 -12 1 -25 -17 -21 -9
-28 37 -33 58 -6 52 -13 -10 -13 l-57 0 22 -25 c15 -18 32 -25 56 -25 20 0 33
-2 30 -5 -6 -6 -49 -15 -81 -18 -17 -1 -17 -2 -1 -14 16 -12 16 -13 -6 -13
-30 0 -15 -17 20 -22 24 -3 24 -4 -7 -18 -18 -8 -33 -18 -33 -22 0 -4 -27 -13
-60 -20 -60 -12 -62 -21 -5 -31 17 -3 44 -8 60 -11 17 -3 45 -8 63 -10 41 -5
55 -16 21 -16 -13 0 -42 -7 -64 -15 -34 -12 -36 -14 -15 -16 14 -1 38 -1 55
-1 20 1 25 -2 16 -7 -8 -5 -29 -8 -47 -7 -37 1 -42 -5 -19 -27 8 -8 11 -17 8
-21 -4 -3 0 -6 8 -6 8 -1 4 -6 -9 -14 -21 -11 -22 -14 -7 -26 9 -7 34 -13 55
-12 21 1 42 -3 45 -9 4 -6 1 -10 -6 -8 -28 3 -94 -4 -71 -8 12 -2 22 -9 22
-14 0 -6 -4 -8 -8 -5 -4 2 -14 1 -22 -4 -8 -5 21 -8 73 -6 48 2 87 -1 87 -6 0
-4 -36 -8 -81 -8 -51 0 -78 -4 -74 -10 3 -6 17 -10 31 -10 14 0 22 -4 19 -10
-3 -5 -18 -10 -32 -10 -38 0 -25 -7 26 -14 53 -7 65 -16 25 -17 -23 -1 -19 -4
21 -14 31 -8 42 -14 28 -15 -13 -2 -27 -4 -33 -5 -5 -1 -22 -3 -37 -4 -14 0
-24 -3 -21 -6 5 -6 50 -12 142 -19 74 -7 85 -16 18 -16 -58 0 -81 -17 -24 -19
72 -1 126 -21 58 -21 -24 0 -35 -4 -31 -11 4 -6 9 -8 12 -5 3 3 22 -3 42 -14
20 -10 52 -21 71 -24 34 -6 142 -18 168 -19 6 0 12 -4 12 -9 0 -5 3 -7 8 -5 4
3 39 8 78 11 272 25 465 169 557 416 27 70 87 364 87 423 0 13 -30 15 -237 14
-131 0 -224 -4 -208 -7 34 -8 23 -14 -40 -25 -34 -6 -37 -8 -19 -15 30 -12 39
-40 14 -40 -32 0 -23 -17 13 -24 24 -5 28 -9 17 -16 -8 -5 -18 -6 -22 -4 -5 3
-11 -2 -14 -10 -3 -9 -12 -16 -19 -16 -8 0 -16 -4 -20 -9 -3 -5 7 -9 22 -9 47
1 99 -3 88 -7 -5 -2 -28 -9 -50 -14 -60 -16 -72 -26 -56 -45 8 -9 24 -16 37
-16 12 0 25 -4 28 -9 4 -5 -3 -7 -14 -4 -11 3 -30 -3 -44 -14 -22 -17 -22 -20
-8 -31 15 -9 13 -11 -10 -11 -62 -2 -9 -45 67 -55 59 -8 70 -16 27 -17 -18 -1
-36 -3 -42 -4 -5 -1 -22 -4 -37 -5 -21 -2 -17 -5 17 -10 l45 -7 -48 -1 c-85
-3 -119 -42 -36 -42 56 0 48 -18 -11 -26 -27 -4 -47 -10 -44 -15 3 -5 -1 -9
-8 -9 -7 -1 -29 -3 -49 -6 -55 -8 -105 17 -114 55 -5 25 -1 73 10 121 1 3 5
30 9 60 5 30 10 64 12 75 2 11 7 40 10 65 3 25 7 47 9 50 2 3 6 30 10 60 3 30
8 62 10 70 2 8 6 29 9 45 3 17 19 116 36 220 17 105 33 201 35 215 2 14 14 81
25 149 12 69 24 143 27 165 10 76 65 124 138 121 73 -4 152 -25 92 -25 -14 0
-28 -4 -32 -9 -10 -17 31 -31 92 -32 51 -1 54 -2 28 -10 -16 -5 -43 -10 -60
-12 -22 -2 -30 -8 -30 -22 0 -11 9 -23 20 -27 17 -5 16 -6 -6 -7 -15 -1 -29
-7 -32 -14 -3 -9 9 -13 45 -15 68 -2 74 -12 10 -13 -75 -2 -77 -3 -77 -19 0
-10 16 -19 45 -26 27 -6 39 -13 30 -17 -8 -3 7 -6 34 -6 74 -1 46 -14 -33 -15
-38 -1 -73 -5 -77 -9 -7 -7 4 -9 64 -10 53 -1 36 -17 -20 -18 -45 -1 -49 -2
-23 -9 21 -5 24 -8 10 -9 -11 -1 -29 -8 -39 -16 -19 -14 -18 -15 15 -17 52 -2
57 -3 65 -11 4 -4 -7 -7 -25 -7 -21 0 -31 -4 -29 -12 3 -7 21 -12 40 -13 44 0
58 -10 20 -13 -46 -4 -60 -8 -73 -19 -8 -5 -21 -13 -29 -16 -12 -4 -12 -6 3
-7 27 -4 31 -5 52 -17 19 -12 18 -12 -10 -13 -16 -1 -39 -5 -50 -10 -18 -8 32
-13 118 -13 21 0 13 -10 -11 -13 -80 -12 -132 -30 -132 -45 0 -10 6 -21 13
-26 13 -8 486 -11 488 -3 0 3 3 16 5 30 3 14 17 104 33 200 53 326 27 484 -98
598 -48 43 -163 92 -218 92 -13 0 -23 4 -23 8 0 4 -50 8 -110 8 -91 1 -112 -2
-120 -15z m-650 -1225 c0 -3 -4 -8 -10 -11 -5 -3 -10 -1 -10 4 0 6 5 11 10 11
6 0 10 -2 10 -4z m34 -4 c3 -5 -1 -9 -9 -9 -8 0 -15 4 -15 9 0 4 4 8 9 8 6 0
12 -4 15 -8z m61 -622 c3 -5 1 -10 -4 -10 -6 0 -11 5 -11 10 0 6 2 10 4 10 3
0 8 -4 11 -10z"/>
<path d="M7148 3153 c7 -3 16 -2 19 1 4 3 -2 6 -13 5 -11 0 -14 -3 -6 -6z"/>
<path d="M438 2763 c7 -3 16 -2 19 1 4 3 -2 6 -13 5 -11 0 -14 -3 -6 -6z"/>
<path d="M5540 2710 c-9 -6 -10 -10 -3 -10 6 0 15 5 18 10 8 12 4 12 -15 0z"/>
<path d="M5578 2713 c7 -3 16 -2 19 1 4 3 -2 6 -13 5 -11 0 -14 -3 -6 -6z"/>
<path d="M5465 2690 c-3 -6 1 -7 9 -4 18 7 21 14 7 14 -6 0 -13 -4 -16 -10z"/>
<path d="M358 2683 c7 -3 16 -2 19 1 4 3 -2 6 -13 5 -11 0 -14 -3 -6 -6z"/>
<path d="M5523 2663 c9 -2 23 -2 30 0 6 3 -1 5 -18 5 -16 0 -22 -2 -12 -5z"/>
<path d="M3180 2650 c-12 -8 -11 -10 5 -11 11 0 33 -2 48 -3 15 -2 30 1 33 6
3 4 -3 8 -13 9 -10 0 -27 2 -38 4 -11 2 -27 0 -35 -5z"/>
<path d="M4616 1885 c10 -8 23 -15 28 -15 6 0 1 7 -10 15 -10 8 -23 15 -28 15
-6 0 -1 -7 10 -15z"/>
<path d="M3215 1590 c-3 -5 -1 -10 4 -10 6 0 11 5 11 10 0 6 -2 10 -4 10 -3 0
-8 -4 -11 -10z"/>
<path d="M258 1583 c7 -3 16 -2 19 1 4 3 -2 6 -13 5 -11 0 -14 -3 -6 -6z"/>
<path d="M3295 1500 c3 -5 8 -10 11 -10 2 0 4 5 4 10 0 6 -5 10 -11 10 -5 0
-7 -4 -4 -10z"/>
</g>
</svg>
